<?xml version="1.0" encoding="utf-8"?>
<!-- Generator: Adobe Illustrator 20.0.0, SVG Export Plug-In . SVG Version: 6.00 Build 0)  -->
<svg version="1.1" id="Layer_1" xmlns="http://www.w3.org/2000/svg" xmlns:xlink="http://www.w3.org/1999/xlink" x="0px" y="0px"
	 viewBox="0 0 218 166.7" style="enable-background:new 0 0 218 166.7;" xml:space="preserve">
<style type="text/css">
	.st0{fill:#CBD5D8;stroke:#CBD5D8;stroke-miterlimit:10;}
	.st1{fill:none;stroke:#1D1D1B;stroke-width:3;stroke-linecap:round;stroke-linejoin:round;stroke-miterlimit:10;}
</style>
<polygon class="st0" points="62.8,113.8 63.3,48.1 46.5,54 44,60.8 22.3,75.7 31.8,96.3 37.5,99 37.5,102.3 "/>
<polygon class="st0" points="141.2,79.1 124.8,86.4 124.8,137.8 154,122.3 "/>
<path class="st1" d="M28,32.5h162.1c3.1,0,5.7,2.6,5.7,5.7v93.9c0,3.1-2.6,5.7-5.7,5.7H28c-3.1,0-5.7-2.6-5.7-5.7V38.2
	C22.3,35,24.8,32.5,28,32.5z"/>
<line class="st1" x1="63.3" y1="32.5" x2="63.3" y2="137.8"/>
<line class="st1" x1="102.8" y1="39.5" x2="102.8" y2="32.5"/>
<polyline class="st1" points="122.5,32.5 124.8,41.5 124.8,65 "/>
<polyline class="st1" points="165.8,32.5 165.8,36 154,39.5 157.1,83 "/>
<line class="st1" x1="195.8" y1="54" x2="44" y2="122.3"/>
<polyline class="st1" points="50,137.8 34.5,104.8 37.5,102.3 37.5,99 34.5,96.3 31.8,96.3 22.3,75.7 44,60.8 46.5,54 63.3,48.1 
	70.5,50 73.5,46.3 102.8,39.5 107.5,41 115.3,55.8 115.3,59.3 195.8,104.8 "/>
<polyline class="st1" points="80.9,44.6 80.9,76.8 63.3,76.8 "/>
<polyline class="st1" points="102.8,131.1 102.8,76.8 124.8,76.8 124.8,137.8 179.6,112.1 "/>
<line class="st1" x1="115.6" y1="137.8" x2="37.5" y2="102.3"/>
<polyline class="st1" points="80.9,120 80.9,76.8 102.8,76.8 "/>
<line class="st1" x1="179.6" y1="137.8" x2="179.6" y2="95.7"/>
<line class="st1" x1="154" y1="122.3" x2="141.2" y2="79.1"/>
<line class="st1" x1="124.8" y1="76.8" x2="124.8" y2="65"/>
</svg>
