<?xml version="1.0" encoding="utf-8"?>
<!-- Generator: Adobe Illustrator 20.0.0, SVG Export Plug-In . SVG Version: 6.00 Build 0)  -->
<svg version="1.1" id="Layer_1" xmlns="http://www.w3.org/2000/svg" xmlns:xlink="http://www.w3.org/1999/xlink" x="0px" y="0px"
	 viewBox="0 0 432.2 206.8" style="enable-background:new 0 0 432.2 206.8;" xml:space="preserve">
<style type="text/css">
	.st0{fill:none;stroke:#CBD5D8;stroke-width:2;stroke-linecap:round;stroke-miterlimit:10;}
	.st1{fill:#CBD5D8;}
	.st2{fill:none;stroke:#1D1D1B;stroke-width:3;stroke-linecap:round;stroke-linejoin:round;stroke-miterlimit:10;}
	.st3{fill:none;stroke:#1D1D1B;stroke-width:2;stroke-linecap:round;stroke-miterlimit:10;}
	.st4{fill:#FFFFFF;}
	.st5{fill:#FFFFFF;stroke:#1D1D1B;stroke-width:3;stroke-linecap:round;stroke-linejoin:round;stroke-miterlimit:10;}
	.st6{fill:#FFFFFF;stroke:#1D1D1B;stroke-width:2;stroke-linecap:round;stroke-linejoin:round;stroke-miterlimit:10;}
	.st7{fill:#FFFFFF;stroke:#CBD5D8;stroke-width:2;stroke-linecap:round;stroke-linejoin:round;stroke-miterlimit:10;}
</style>
<polyline class="st0" points="140.1,126 140.1,176 134.1,176 134.1,132.1 "/>
<polygon class="st1" points="242,116.4 243.6,112.3 248.7,106.1 247.3,98.6 247.4,93.5 243.6,88.3 240.5,83 236.6,78.1 232,75.3 
	226.7,76.3 223.1,81.6 223.1,88.3 224.3,96.9 222.6,103.4 222.5,111.5 225.2,117.7 230.1,120.6 234.7,120.4 "/>
<path class="st2" d="M411.6,185.8H243.4c-3.7,0-6.8-3-6.8-6.8v-7.5c0-3.7-3-6.8-6.8-6.8h-21c-3.7,0-6.8,3-6.8,6.8v7.5
	c0,3.7-3,6.8-6.8,6.8H21.6"/>
<path class="st2" d="M241.3,190.3c-5.4,0-9.8-4.4-9.8-9.8"/>
<path class="st2" d="M257.3,100.5c0-21.1-17.1-38.2-38.2-38.2s-38.2,17.1-38.2,38.2c0,12.6,6.1,23.8,15.6,30.8
	c3.1,3.3,7.2,9.4,7.2,18.1v3.3c0,3.7,3,6.7,6.7,6.7h8.8h8.8c3.7,0,6.7-3,6.7-6.7v-3.3c0-9.5,4.9-15.9,8-18.9
	c0.8-0.7,1.7-1.4,2.4-2.1c0,0,0,0,0,0h0C252.6,121.3,257.3,111.4,257.3,100.5z"/>
<path class="st3" d="M234.7,86.7c0,0,1.1,3,6.4,3"/>
<path class="st3" d="M228.2,81.6c0,0,1.9,1.2,1.9,5.1"/>
<path class="st3" d="M226.7,90.9c0,0,5.4,3.2,10.6-1.9"/>
<path class="st3" d="M240.5,94.9c0,0-2.6,1.9-2.6,5.8"/>
<path class="st3" d="M238.6,97.5c0,0-4.2-0.1-5.9-5.6"/>
<path class="st3" d="M241.7,106.1c0,0,1.2-2.2,0-5.4"/>
<path class="st3" d="M232.3,104.4c0,0-1.9-2.4-1-6.5"/>
<path class="st3" d="M236.6,103.4c0,0,1.5,3.8,0.3,8"/>
<path class="st3" d="M239.2,112.3c0,0-1.2-0.8-4.5-0.8"/>
<path class="st3" d="M244.9,107.9c0,0-0.8,1.8-3,2.6"/>
<path class="st3" d="M232.3,112.6c0,0-2.6,0-4.7-2.7"/>
<polygon class="st1" points="196.4,116.4 194.8,112.3 189.6,106.1 191,98.6 190.9,93.5 194.8,88.3 197.8,83 201.7,78.1 206.3,75.3 
	211.6,76.3 215.2,81.6 215.2,88.3 214,96.9 215.7,103.4 215.8,111.5 213.1,117.7 208.2,120.6 203.6,120.4 "/>
<path class="st3" d="M231.2,101.2c0,0-8.7,1.8-8.7-14.5s14.8-12.4,15.8-5.1"/>
<path class="st3" d="M214.4,96.9c0,0,2.4,1.6,1.8,14.6c-0.6,13-22.9,11.7-20.9-1.8"/>
<path class="st3" d="M229.6,83.5c0,0,12.3-6.3,15.4,6.1c0,0,8.1,7.4-2.7,13.4"/>
<path class="st3" d="M247.3,98.6c0,0,5.4,9.4-3.7,13.7"/>
<path class="st3" d="M229.9,111.9c-1.1,6.8,10.6,11.6,13.5,1.4"/>
<path class="st3" d="M204,86.7c0,0-1.1,3-6.4,3"/>
<path class="st3" d="M210.5,81.6c0,0-1.9,1.2-1.9,5.1"/>
<path class="st3" d="M212,90.9c0,0-5.4,3.2-10.6-1.9"/>
<path class="st3" d="M198.2,94.9c0,0,2.6,1.9,2.6,5.8"/>
<path class="st3" d="M200.1,97.5c0,0,4.2-0.1,5.9-5.6"/>
<path class="st3" d="M197,106.1c0,0-1.2-2.2,0-5.4"/>
<path class="st3" d="M206.3,104.4c0,0,1.9-2.4,1-6.5"/>
<path class="st3" d="M202.1,103.4c0,0-1.5,3.8-0.3,8"/>
<path class="st3" d="M199.5,112.3c0,0,1.2-0.8,4.5-0.8"/>
<path class="st3" d="M193.8,107.9c0,0,0.8,1.8,3,2.6"/>
<path class="st3" d="M206.3,112.6c0,0,2.6,0,4.7-2.7"/>
<path class="st3" d="M207.5,101.2c0,0,8.7,1.8,8.7-14.5s-14.8-12.4-15.8-5.1"/>
<path class="st3" d="M224.3,96.9c0,0-2.4,1.6-1.8,14.6c0.6,13,22.9,11.7,20.9-1.8"/>
<path class="st3" d="M209.1,83.5c0,0-12.3-6.3-15.4,6.1c0,0-8.1,7.4,2.7,13.4"/>
<path class="st3" d="M191.4,98.6c0,0-5.4,9.4,3.7,13.7"/>
<path class="st3" d="M208.8,111.9c1.1,6.8-10.6,11.6-13.5,1.4"/>
<path class="st2" d="M129.8,122.1h14c1.7,0,3.1,1.4,3.1,3.1v0c0,1.7-1.4,3.1-3.1,3.1h-14c-1.7,0-3.1-1.4-3.1-3.1v0
	C126.8,123.5,128.1,122.1,129.8,122.1z"/>
<path class="st2" d="M144.1,128.3v18.2c0,3.5,0.8,6.9,2.5,9.9l12.5,23.6c1.3,2.4-0.5,5.4-3.2,5.4h-37.5c-2.8,0-4.5-2.9-3.2-5.4
	l12.6-24c1.6-3,2.4-6.4,2.4-9.9v-17.9"/>
<line class="st3" x1="125" y1="161.1" x2="137.1" y2="161.1"/>
<line class="st3" x1="140.9" y1="161.1" x2="145.3" y2="161.1"/>
<path class="st3" d="M276.6,147.4v-4.5l5.6-1.5c0.6-3.6,1.9-6.8,3.9-9.7l-2.8-4.9l3.2-3.2l4.9,2.8c2.8-2.1,6.2-3.5,9.8-4.1l1.4-5.4
	h4.5l1.4,5.4c3.6,0.6,6.9,2,9.8,4.1l4.9-2.8l3.2,3.2l-2.8,4.9c2,2.8,3.4,6.1,3.9,9.7l5.6,1.5v4.5l-5.7,1.5c-0.6,3.5-2,6.7-4,9.4
	l3,5.2l-3.2,3.2l-5.2-3c-2.7,1.9-5.9,3.2-9.3,3.8l-1.6,5.9h-4.5l-1.6-5.9c-3.4-0.6-6.6-1.9-9.3-3.8l-5.2,3l-3.2-3.2l3-5.2
	c-2-2.7-3.4-5.9-4-9.4L276.6,147.4z"/>
<path class="st0" d="M119.1,125.7c-2.1,0.6-4.2,1-6.4,1.1l-2.8,7.3l-5.8-0.6l-1.2-7.7c-4.3-1.2-8.1-3.3-11.3-6.1l-7,3.2l-3.7-4.5
	l4.5-6.2c-2.2-3.8-3.5-8-3.8-12.5l-7-2.7l0.6-5.8l7.3-1.1c1.2-4.5,3.4-8.5,6.3-11.8l-3-6.6l4.5-3.7l5.8,4.2c3.9-2.3,8.3-3.6,13-3.9
	l2.5-6.7l5.8,0.6l1.1,7c4.5,1.2,8.6,3.5,11.9,6.5"/>
<path class="st3" d="M273.4,85.8v-3.4l4.2-1.1c0.4-2.7,1.4-5.1,2.9-7.2l-2.1-3.7l2.4-2.4l3.6,2.1c2.1-1.5,4.6-2.6,7.3-3l1.1-4h3.4
	l1.1,4c2.7,0.4,5.2,1.5,7.3,3l3.6-2.1l2.4,2.4l-2.1,3.7c1.5,2.1,2.5,4.6,2.9,7.2l4.2,1.1v3.4l-4.2,1.1c-0.5,2.6-1.5,5-3,7l2.2,3.8
	l-2.4,2.4l-3.9-2.3c-2,1.4-4.4,2.4-6.9,2.8l-1.2,4.4h-3.4l-1.2-4.4c-2.5-0.4-4.9-1.4-6.9-2.8l-3.9,2.3l-2.4-2.4l2.2-3.8
	c-1.5-2-2.5-4.4-3-7L273.4,85.8z"/>
<path class="st2" d="M311.1,70.8c-3.2-5.9-9.8-9-16.4-9c-12.1,0-21.8,9.8-21.8,21.8l1.5,59.5c0,16.8,13.6,30.4,30.4,30.4
	s31.5-12.4,30.4-30.4S314.3,76.7,311.1,70.8z"/>
<path class="st2" d="M298.4,83.3c0,2.1-1.7,3.8-3.8,3.8s-3.8-1.7-3.8-3.8"/>
<polygon class="st4" points="296.2,73.1 287.3,55 280.2,58.4 286,68.8 288.2,75.3 "/>
<path class="st2" d="M298.4,83.3c0-2.2-0.7-5.9-1.4-8.1c-10.8-33.6-42.3-58-79.5-58c-46.1,0-83.4,37.3-83.4,83.4V115"/>
<path class="st2" d="M290.8,83.3c-0.3-1.7-0.3-2.2-0.8-3.8c-8.9-31.6-38-54.8-72.4-54.8c-41.6,0-75.3,33.7-75.3,75.3v12.9"/>
<rect x="288.2" y="178.3" class="st2" width="33.4" height="7.1"/>
<path class="st5" d="M304.9,141.7L304.9,141.7c-2.5,0-4.5,2-4.5,4.5v32.1h8.9v-32.1C309.4,143.7,307.4,141.7,304.9,141.7z"/>
<line class="st6" x1="304.9" y1="147" x2="304.9" y2="147.5"/>
<line class="st6" x1="304.9" y1="177.1" x2="304.9" y2="152.1"/>
<line class="st7" x1="315.4" y1="94.7" x2="323.3" y2="115.5"/>
<path class="st6" d="M280.2,105.5"/>
<line class="st7" x1="278.6" y1="125.2" x2="278.6" y2="106.1"/>
<path class="st7" d="M204.9,54.4c4.5-1.4,9.3-2.1,14.2-2.1c5.8,0,11.3,1,16.4,2.8"/>
<path class="st7" d="M170.3,101.1c0-6.7,1.4-13.2,3.8-19c2.8-6.6,7-12.4,12.2-17.1"/>
<path class="st7" d="M194.5,143.2c-5.7-3.3-10.6-7.8-14.5-13"/>
<path class="st2" d="M219.1,155"/>
<path class="st7" d="M264.7,118.4c-2.1,5.4-5,10.3-8.8,14.6c-3.1,3.6-6.7,6.7-10.8,9.3"/>
<path class="st7" d="M254.1,67c8.6,8.8,13.8,20.8,13.8,34"/>
<path class="st7" d="M160.7,70.2c3-5.6,6.8-10.8,11.5-15.4c5.5-5.5,11.6-9.7,18.2-12.9"/>
<path class="st7" d="M172.1,147c-6.4-6.4-11.1-13.7-14.3-21.6c-3.6-8.8-5.1-18.3-4.7-27.7"/>
<path class="st7" d="M219.1,35.7c16.4,0.2,32.7,6.6,45.2,19.1"/>
<path class="st3" d="M205.9,123.8l2.6,4.1c2.8,4.5,4.3,9.7,4.3,15v9.1"/>
</svg>
