<?xml version="1.0" encoding="utf-8"?>
<!-- Generator: Adobe Illustrator 20.0.0, SVG Export Plug-In . SVG Version: 6.00 Build 0)  -->
<svg version="1.1" id="Layer_1" xmlns="http://www.w3.org/2000/svg" xmlns:xlink="http://www.w3.org/1999/xlink" x="0px" y="0px"
	 viewBox="0 0 218 166.7" style="enable-background:new 0 0 218 166.7;" xml:space="preserve">
<style type="text/css">
	.st0{fill:none;stroke:#CBD5D8;stroke-width:3;stroke-linecap:round;stroke-linejoin:round;stroke-miterlimit:10;}
	.st1{fill:none;stroke:#1D1D1B;stroke-width:3;stroke-linecap:round;stroke-linejoin:round;stroke-miterlimit:10;}
	.st2{fill:#CBD5D8;stroke:#1D1D1B;stroke-width:2;stroke-miterlimit:10;}
	.st3{fill:none;stroke:#1D1D1B;stroke-width:2;stroke-miterlimit:10;}
	.st4{fill:none;stroke:#1D1D1B;stroke-width:2;stroke-linecap:round;stroke-miterlimit:10;}
	.st5{fill:none;stroke:#1D1D1B;stroke-width:2;stroke-linecap:round;stroke-linejoin:round;stroke-miterlimit:10;}
	.st6{fill:#CBD5D8;stroke:#1D1D1B;stroke-width:2;stroke-linecap:round;stroke-linejoin:round;stroke-miterlimit:10;}
</style>
<polyline class="st0" points="58.4,96.9 65.9,93.8 86.4,87 83.1,70.4 109.9,51.7 131.4,64.1 132.1,95.6 153.9,88.3 174.3,84.5 "/>
<polygon class="st1" points="22.5,26.1 22.5,116.2 65.1,140.2 109.9,123.7 154,140.2 195.6,127.7 195.6,26.1 153.7,42.3 109.9,29.6 
	65.9,42.7 "/>
<line class="st1" x1="153.9" y1="109.5" x2="153.9" y2="128.3"/>
<line class="st1" x1="153.9" y1="42.7" x2="153.9" y2="102.8"/>
<line class="st1" x1="65.9" y1="109.5" x2="65.9" y2="128.3"/>
<line class="st1" x1="65.9" y1="42.7" x2="65.9" y2="102.8"/>
<line class="st1" x1="109.9" y1="123.7" x2="109.9" y2="66.8"/>
<circle class="st2" cx="35.6" cy="90.4" r="7.1"/>
<circle class="st3" cx="46.6" cy="94.8" r="2.1"/>
<line class="st4" x1="35.6" y1="82.8" x2="50" y2="82.8"/>
<path class="st5" d="M31.7,73.7h0.2c1.9,0,3.4,1.5,3.4,3.4v5.7"/>
<line class="st4" x1="46.4" y1="82.8" x2="46.4" y2="92"/>
<polyline class="st5" points="42.7,88.3 50,88.3 53.7,95.6 55.5,92 "/>
<path class="st6" d="M174.8,85l4.5-7.5c0.7-0.9,1.1-2.1,1.1-3.4c0-3.1-2.5-5.6-5.6-5.6c-3.1,0-5.6,2.5-5.6,5.6
	c0,0.8,0.2,1.6,0.5,2.3h0l0,0c0.2,0.4,0.4,0.7,0.6,1L174.8,85z"/>
<circle class="st5" cx="174.7" cy="74.4" r="1"/>
</svg>
