<?xml version="1.0" encoding="utf-8"?>
<!-- Generator: Adobe Illustrator 20.0.0, SVG Export Plug-In . SVG Version: 6.00 Build 0)  -->
<svg version="1.1" id="Layer_1" xmlns="http://www.w3.org/2000/svg" xmlns:xlink="http://www.w3.org/1999/xlink" x="0px" y="0px"
	 viewBox="0 0 218 166.7" style="enable-background:new 0 0 218 166.7;" xml:space="preserve">
<style type="text/css">
	.st0{fill:#CBD5D8;stroke:#CBD5D8;stroke-miterlimit:10;}
	.st1{fill:none;stroke:#1D1D1B;stroke-width:3;stroke-linecap:round;stroke-linejoin:round;stroke-miterlimit:10;}
	.st2{fill:#FFFFFF;stroke:#1D1D1B;stroke-width:3;stroke-linecap:round;stroke-linejoin:round;stroke-miterlimit:10;}
	.st3{fill:none;stroke:#1D1D1B;stroke-width:2;stroke-miterlimit:10;}
	.st4{fill:none;stroke:#1D1D1B;stroke-width:2;stroke-linecap:round;stroke-linejoin:round;stroke-miterlimit:10;}
</style>
<path class="st0" d="M32,31.9h117c3.1,0,5.7,2.6,5.7,5.7v8.6c0,3.1-2.6,5.7-5.7,5.7H32c-3.1,0-5.7-2.6-5.7-5.7v-8.6
	C26.3,34.4,28.8,31.9,32,31.9z"/>
<path class="st1" d="M32,32.3h117c3.1,0,5.7,2.6,5.7,5.7v86c0,3.1-2.6,5.7-5.7,5.7H32c-3.1,0-5.7-2.6-5.7-5.7V38
	C26.3,34.9,28.8,32.3,32,32.3z"/>
<line class="st1" x1="26.3" y1="51.9" x2="169.8" y2="51.9"/>
<circle class="st1" cx="35.9" cy="42" r="2.5"/>
<ellipse transform="matrix(0.7071 -0.7071 0.7071 0.7071 -16.596 43.8534)" class="st1" cx="44.6" cy="42" rx="2.5" ry="2.5"/>
<ellipse transform="matrix(0.7071 -0.7071 0.7071 0.7071 -13.8947 50.375)" class="st1" cx="53.9" cy="42" rx="2.5" ry="2.5"/>
<line class="st1" x1="38.4" y1="64.9" x2="84.3" y2="64.9"/>
<line class="st1" x1="93" y1="74.9" x2="124.3" y2="74.9"/>
<line class="st1" x1="48.4" y1="74.9" x2="85.5" y2="74.9"/>
<line class="st1" x1="48.4" y1="84.9" x2="84.3" y2="84.9"/>
<line class="st1" x1="38.4" y1="104.9" x2="84.3" y2="104.9"/>
<line class="st1" x1="48.4" y1="114.9" x2="94.3" y2="114.9"/>
<line class="st1" x1="83" y1="94.9" x2="105.1" y2="94.9"/>
<line class="st1" x1="48.4" y1="94.9" x2="75.5" y2="94.9"/>
<path class="st2" d="M146.7,45.3h37.2c4.3,0,7.9,3.5,7.9,7.9V130c0,4.3-3.5,7.9-7.9,7.9h-37.2c-4.3,0-7.9-3.5-7.9-7.9V53.1
	C138.8,48.8,142.3,45.3,146.7,45.3z"/>
<line class="st2" x1="138.8" y1="60.6" x2="191.7" y2="60.6"/>
<line class="st2" x1="138.8" y1="122.9" x2="191.7" y2="122.9"/>
<ellipse transform="matrix(0.7071 -0.7071 0.7071 0.7071 -43.3066 154.8612)" class="st1" cx="165.3" cy="129.7" rx="2.5" ry="2.5"/>
<ellipse transform="matrix(0.7071 -0.7071 0.7071 0.7071 8.109 126.3817)" class="st1" cx="156.6" cy="53.4" rx="0.8" ry="0.8"/>
<line class="st2" x1="162.6" y1="53.4" x2="171.1" y2="53.4"/>
<circle class="st3" cx="166.1" cy="76.9" r="2.8"/>
<polyline class="st4" points="166.1,87.1 166.9,83.3 161.1,81.3 156.9,92.1 158.4,100.8 156.1,106.6 159.5,108.1 161.9,102.1 
	162,96.5 164.5,101.6 164.4,107.3 167.8,107.3 167.7,100.1 163.9,92.1 159.6,92.1 "/>
<polyline class="st4" points="160.6,83.7 164.4,88.9 171.6,92.8 "/>
<path class="st4" d="M171.1,98.1v-1.4c0-1.2,1-2.2,2.2-2.2l0,0c1.2,0,2.2,1,2.2,2.2v11.1"/>
</svg>
