<?xml version="1.0" encoding="utf-8"?>
<!-- Generator: Adobe Illustrator 20.0.0, SVG Export Plug-In . SVG Version: 6.00 Build 0)  -->
<svg version="1.1" id="Layer_1" xmlns="http://www.w3.org/2000/svg" xmlns:xlink="http://www.w3.org/1999/xlink" x="0px" y="0px"
	 viewBox="0 0 270 51.3" style="enable-background:new 0 0 270 51.3;" xml:space="preserve"
width="300px">
<style type="text/css">
	.st0{fill:none;stroke:#FFFFFF;stroke-width:2;stroke-miterlimit:10;}
	.st1{fill:none;stroke:#FFFFFF;stroke-width:2;stroke-linecap:round;stroke-miterlimit:10;}
	.st2{fill:none;stroke:#FFFFFF;stroke-width:2;stroke-linecap:round;stroke-linejoin:round;stroke-miterlimit:10;}
</style>
<circle class="st0" cx="18.3" cy="33.1" r="9.7"/>
<circle class="st0" cx="18.3" cy="33.1" r="4.7"/>
<circle class="st0" cx="33.3" cy="39.1" r="2.8"/>
<circle class="st0" cx="253.8" cy="39.9" r="2.3"/>
<circle class="st0" cx="247.2" cy="39.9" r="2.3"/>
<circle class="st0" cx="96.2" cy="11.1" r="2.8"/>
<circle class="st0" cx="228.7" cy="9.1" r="2.8"/>
<line class="st1" x1="18.3" y1="22.7" x2="38" y2="22.7"/>
<path class="st2" d="M13,10.2h0.3c2.6,0,4.7,2.1,4.7,4.7v7.8"/>
<line class="st1" x1="33" y1="22.7" x2="33" y2="35.2"/>
<polyline class="st2" points="28,30.2 38,30.2 43,40.2 45.5,35.2 "/>
<path class="st2" d="M58,18.7"/>
<polyline class="st2" points="96.3,21.2 97,17.5 91.3,15.5 87,26.2 88.5,35 86.3,40.8 89.6,42.2 92,36.2 92.1,30.7 94.6,35.7 
	94.5,41.5 97.9,41.5 97.8,34.3 94,26.3 89.8,26.3 "/>
<line class="st2" x1="231.1" y1="27" x2="228.7" y2="27.1"/>
<polyline class="st2" points="231.2,17.7 230.9,14.5 226.1,14.5 225.4,26.2 229.2,34.1 230.5,42.2 233.8,42.3 233.1,34.1 231.1,27 
	"/>
<polyline class="st2" points="90.7,17.9 94.5,23.1 101.8,27 "/>
<path class="st2" d="M101.3,32.2v-1.4c0-1.2,1-2.2,2.2-2.2l0,0c1.2,0,2.2,1,2.2,2.2v11.1"/>
<circle class="st0" cx="152.7" cy="37.5" r="4.8"/>
<path class="st0" d="M181.8,37.5c0,2.7-2.2,4.8-4.8,4.8c-2.7,0-4.8-2.2-4.8-4.8"/>
<circle class="st0" cx="152.7" cy="37.5" r="0.2"/>
<polyline class="st2" points="150.3,33.3 150.3,29 162.8,29 164.2,33.9 170.3,33.9 "/>
<path class="st2" d="M157.5,37.5H184v-1.3c0-3.9-3.2-7.1-7.1-7.1c-3.1,0-5.7,2-6.7,4.8"/>
<polyline class="st2" points="150.9,20.3 151.8,25.4 156.8,25.4 "/>
<line class="st2" x1="176.9" y1="29.2" x2="173.6" y2="12.2"/>
<line class="st2" x1="176.7" y1="11.7" x2="170.4" y2="12.8"/>
<polyline class="st2" points="177.7,15.9 181.3,15.9 180.2,21.4 178.6,21.4 "/>
<line class="st2" x1="238.2" y1="23.7" x2="240.6" y2="27.9"/>
<path class="st2" d="M259,27.9c0-2.4-2.4-6.2-2.4-6.2s-4.1-2.9-6.7-2.9v9.2l6.7-6.2"/>
<polyline class="st2" points="226.5,18.6 232,21.6 238.2,23.7 "/>
<line class="st2" x1="231.1" y1="27" x2="231.1" y2="24.1"/>
<polygon class="st2" points="243.9,34.9 256,34.9 259,27.9 240.9,27.9 "/>
<polyline class="st2" points="227.8,31.8 225.8,42.2 228.7,42.3 229.6,37.6 "/>
</svg>
